<svg xmlns="http://www.w3.org/2000/svg" width="800" height="600" viewBox="0 0 800 600">
    <rect width="100%" height="100%" fill="transparent"/>
    <!-- Globe core -->
    <circle cx="400.0" cy="228.0" r="72.0" fill="#23C1D1" opacity="0.95"/>
    <!-- Hex-ish grid arcs -->
    <path d="M 352.0 228.0 H 448.00000000000006 M 400.0 192.0 V 264.0" stroke="#EAC65A" stroke-width="4" opacity="0.65"/>
    <!-- Anvil shape -->
    <path d="
      M 176.0 288.0
      H 360.0
      C 416.0 276.0, 480.0 276.0, 544.0 288.0
      L 656.0 288.0
      L 560.0 336.00000000000006
      L 512.0 348.0
      L 512.0 372.0
      H 320.0
      L 280.0 348.0
      L 176.0 336.00000000000006
      Z" fill="#D97742" />
    <!-- Tentacle flourish -->
    <path d="
      M 320.0 372.0
      C 416.0 420.0, 528.0 420.0, 592.0 372.0
      C 624.0 348.0, 608.0 324.0, 576.0 324.0
      C 528.0 324.0, 496.0 372.0, 448.00000000000006 372.0
      C 400.0 372.0, 368.0 336.00000000000006, 320.0 372.0
      Z" fill="#23C1D1" opacity="0.85"/>
    </svg>